<svg xmlns="http://www.w3.org/2000/svg" width="126" height="126" viewBox="0 0 126 126" fill="none">
  <rect x="6.69025" y="18.7297" width="105.372" height="101.595" rx="43" fill="#ECF0F3"/>
  <path fill-rule="evenodd" clip-rule="evenodd" d="M60.0221 17.4165C60.015 17.4169 60.008 17.4172 60.001 17.4176C59.9982 17.4177 59.9954 17.4179 59.9926 17.418C59.9713 17.4191 59.95 17.4201 59.9287 17.4211C59.9105 17.4219 59.8922 17.4227 59.8739 17.4234C59.8207 17.4256 59.7674 17.4273 59.714 17.4288C59.6745 17.4299 59.6349 17.4307 59.5953 17.4314C59.542 17.4323 59.4887 17.4329 59.4353 17.4331C59.417 17.4332 59.3987 17.4332 59.3804 17.4332C59.3591 17.4332 59.3378 17.4332 59.3165 17.4331C59.2489 17.4327 59.1814 17.4318 59.114 17.4303C59.0209 17.4283 58.928 17.4252 58.8354 17.4211C58.7424 17.417 58.6496 17.4118 58.5571 17.4055C58.5569 17.4098 58.5567 17.414 58.5566 17.4183C58.5501 17.7316 58.7943 17.9911 59.1022 17.9978C59.1947 17.9998 59.2874 18.0008 59.3804 18.0008L59.4376 18.0007C59.519 18.0003 59.5962 17.9823 59.6657 17.9501C59.7367 17.9792 59.8147 17.9938 59.896 17.9905L59.9532 17.9881L59.9534 17.9881L59.9411 17.7046C59.9657 17.7035 59.9903 17.7023 60.0149 17.701C60.0289 17.7003 60.0426 17.6986 60.0559 17.6959C60.0649 17.7938 60.0986 17.8858 60.1516 17.9642C60.2145 17.9463 60.2728 17.9174 60.3245 17.8799M60.2792 17.4002C60.2862 17.3997 60.2933 17.3991 60.3003 17.3986C60.3216 17.397 60.343 17.3953 60.3643 17.3936C60.4287 17.3884 60.4929 17.3826 60.557 17.3764C60.564 17.3757 60.571 17.3751 60.578 17.3744C60.6021 17.372 60.626 17.3696 60.65 17.3671C60.6364 17.4588 60.6234 17.5508 60.6112 17.6429C60.6106 17.6474 60.61 17.6519 60.6094 17.6564C60.6085 17.663 60.6076 17.6696 60.6067 17.6762C60.5959 17.7588 60.5856 17.8415 60.5758 17.9244C60.5751 17.9303 60.5744 17.9361 60.5737 17.942C60.4847 17.9414 60.3999 17.9192 60.3245 17.8799" fill="#B3C2C6"/>
  <path d="M118.329 88.6379H116.522C116.522 88.3518 116.583 88.1278 116.704 87.9658C116.832 87.7985 117.019 87.7148 117.268 87.7148H118.329V86.8323C118.329 86.5678 118.42 86.3789 118.602 86.2655C118.785 86.1467 119.053 86.0874 119.406 86.0874V87.7148H121.213C121.213 88.0063 121.15 88.233 121.023 88.395C120.901 88.5569 120.711 88.6379 120.451 88.6379H119.406V89.5204C119.406 90.0224 119.047 90.2734 118.329 90.2734V88.6379Z" fill="#8FA4AF"/>
  <path fill-rule="evenodd" clip-rule="evenodd" d="M122.155 78.3724C121.848 78.3724 121.6 78.6204 121.6 78.9264C121.6 79.2324 121.848 79.4804 122.155 79.4804C122.462 79.4804 122.711 79.2324 122.711 78.9264C122.711 78.6204 122.462 78.3724 122.155 78.3724ZM120.982 78.9264C120.982 78.2804 121.507 77.7568 122.155 77.7568C122.803 77.7568 123.328 78.2804 123.328 78.9264C123.328 79.5724 122.803 80.096 122.155 80.096C121.507 80.096 120.982 79.5724 120.982 78.9264Z" fill="#8FA4AF"/>
  <path d="M96.6656 36.7991H95.3738C95.3738 36.5903 95.4172 36.4268 95.5041 36.3086C95.595 36.1865 95.7293 36.1254 95.9071 36.1254H96.6656V35.4813C96.6656 35.2882 96.7308 35.1503 96.8611 35.0676C96.9915 34.9809 97.1831 34.9376 97.436 34.9376V36.1254H98.7278C98.7278 36.3382 98.6823 36.5036 98.5915 36.6218C98.5046 36.74 98.3683 36.7991 98.1826 36.7991H97.436V37.4433C97.436 37.8097 97.1792 37.9929 96.6656 37.9929V36.7991Z" fill="#8FA4AF"/>
  <path fill-rule="evenodd" clip-rule="evenodd" d="M90.1892 35.2458C89.6778 35.2458 89.2633 35.6592 89.2633 36.1692C89.2633 36.6792 89.6778 37.0926 90.1892 37.0926C90.7005 37.0926 91.1151 36.6792 91.1151 36.1692C91.1151 35.6592 90.7005 35.2458 90.1892 35.2458ZM88.646 36.1692C88.646 35.3193 89.3369 34.6302 90.1892 34.6302C91.0414 34.6302 91.7323 35.3193 91.7323 36.1692C91.7323 37.0192 91.0414 37.7082 90.1892 37.7082C89.3369 37.7082 88.646 37.0192 88.646 36.1692Z" fill="#8FA4AF"/>
  <path fill-rule="evenodd" clip-rule="evenodd" d="M96.979 27.8589C95.9904 27.8589 95.1889 28.6581 95.1889 29.6441C95.1889 30.63 95.9904 31.4293 96.979 31.4293C97.9676 31.4293 98.7691 30.63 98.7691 29.6441C98.7691 28.6581 97.9676 27.8589 96.979 27.8589ZM94.5717 29.6441C94.5717 28.3181 95.6495 27.2433 96.979 27.2433C98.3085 27.2433 99.3864 28.3181 99.3864 29.6441C99.3864 30.97 98.3085 32.0449 96.979 32.0449C95.6495 32.0449 94.5717 30.97 94.5717 29.6441Z" fill="#8FA4AF"/>
  <path d="M52.8603 20.802C51.9924 20.7347 51.1499 20.5753 50.3421 20.3336C50.341 20.3369 50.3399 20.3402 50.3388 20.3435C50.2487 20.6045 49.964 20.743 49.703 20.6529C49.4095 20.5516 49.1208 20.4397 48.8373 20.3177C48.5837 20.2085 48.4666 19.9144 48.5757 19.6607C48.5771 19.6576 48.5785 19.6544 48.5799 19.6513C47.8056 19.2793 47.0758 18.8272 46.4008 18.3054C46.3987 18.3081 46.3965 18.3107 46.3944 18.3133C46.2168 18.5247 45.9014 18.5522 45.6899 18.3746C45.4532 18.1758 45.2236 17.9685 45.0017 17.7532C44.8036 17.5608 44.7988 17.2443 44.9911 17.0461C44.9935 17.0437 44.9958 17.0413 44.9982 17.039C44.4108 16.4212 43.8857 15.7418 43.433 15.0112C43.4301 15.0129 43.4273 15.0146 43.4244 15.0162C43.184 15.1522 42.8789 15.0676 42.743 14.8272C42.7314 14.8067 42.7199 14.7862 42.7084 14.7656C42.6709 14.7748 42.6335 14.784 42.5961 14.7932C42.3288 14.8593 42.0585 14.6969 41.9913 14.4301C41.0128 14.6816 40.0447 14.9595 39.0876 15.263C39.172 15.5248 39.0289 15.8058 38.7672 15.8915C38.4511 15.9949 38.1362 16.1011 37.8227 16.2102C37.5626 16.3006 37.2785 16.1637 37.1869 15.9043C36.2367 16.2445 35.2983 16.6102 34.3724 17.0006C34.4805 17.2536 34.3638 17.5466 34.111 17.6559C33.8059 17.7879 33.5021 17.9226 33.1997 18.06C32.949 18.1739 32.6536 18.0636 32.5386 17.8137C31.6241 18.2393 30.723 18.6894 29.8359 19.1631C29.9666 19.4052 29.8771 19.7076 29.6354 19.8396C29.3437 19.9987 29.0536 20.1605 28.7651 20.3248C28.5258 20.4611 28.2215 20.3782 28.0843 20.1398C27.2129 20.6466 26.3562 21.1767 25.5151 21.7293C25.6672 21.9585 25.6055 22.2678 25.3767 22.4211C25.1007 22.6059 24.8265 22.7933 24.554 22.983C24.328 23.1404 24.0175 23.0853 23.8593 22.8602C23.0376 23.4434 22.2321 24.0485 21.4436 24.6748C21.6157 24.8895 21.5821 25.2031 21.3679 25.3763C21.1097 25.5852 20.8533 25.7964 20.5989 26.0098C20.3879 26.1869 20.0737 26.1599 19.8959 25.9499C19.1302 26.604 18.382 27.2787 17.6523 27.9732C17.8428 28.1717 17.8373 28.487 17.6395 28.6787C17.4009 28.9097 17.1644 29.143 16.9299 29.3783C16.7355 29.5734 16.4201 29.5745 16.2244 29.3812C15.5202 30.1007 14.835 30.8392 14.1694 31.5961C14.3768 31.7769 14.3993 32.0915 14.2193 32.2999C14.0023 32.5512 13.7874 32.8044 13.5747 33.0596C13.3984 33.2712 13.0843 33.3003 12.8722 33.1251C12.2349 33.9038 11.6177 34.7002 11.0214 35.5134C11.244 35.6751 11.2942 35.9865 11.1333 36.21C10.9394 36.4794 10.7478 36.7506 10.5586 37.0236C10.4016 37.25 10.0914 37.3067 9.86458 37.1509C9.29885 37.9825 8.75445 38.8302 8.23214 39.6933C8.46816 39.8347 8.54569 40.1405 8.40518 40.3773C8.23581 40.6628 8.06887 40.95 7.90439 41.2388C7.76809 41.4781 7.46404 41.562 7.22438 41.4269C6.73461 42.3047 6.26723 43.1971 5.82301 44.1033C6.0706 44.2233 6.17483 44.521 6.05579 44.7694C5.91225 45.0688 5.77126 45.3697 5.63284 45.6721C5.51821 45.9226 5.22276 46.033 4.9721 45.9196C4.56208 46.8365 4.17539 47.7666 3.81278 48.7089C4.07 48.8066 4.20012 49.0939 4.10348 49.3518C3.9869 49.6629 3.87296 49.9753 3.76169 50.289C3.66963 50.5486 3.38509 50.6847 3.12539 50.5939C2.79824 51.5427 2.49521 52.503 2.21704 53.4741C2.48187 53.5487 2.63684 53.8234 2.56332 54.0889C2.47466 54.409 2.38871 54.7303 2.30551 55.0527C2.2367 55.3194 1.96527 55.4801 1.69857 55.4125C1.45651 56.3857 1.23922 57.369 1.0474 58.3616C1.31777 58.4126 1.49629 58.6726 1.44639 58.9435C1.38626 59.2699 1.3289 59.5974 1.27434 59.9258C1.22921 60.1975 0.972924 60.3814 0.701311 60.3374C0.545678 61.3276 0.415262 62.3262 0.310752 63.3328C0.584554 63.36 0.785094 63.6035 0.759019 63.8777C0.727616 64.2079 0.699023 64.5389 0.673265 64.8708C0.651952 65.1454 0.412637 65.3509 0.138221 65.3308C0.0693217 66.33 0.0258895 67.3363 0.00857929 68.3491C0.283723 68.3526 0.504507 68.5779 0.502145 68.8533C0.500716 69.02 0.5 69.1868 0.5 69.3537C0.5 69.5167 0.500682 69.6794 0.502043 69.842C0.504348 70.1174 0.283516 70.3427 0.00837179 70.3462C0.0249086 71.3257 0.065877 72.2991 0.130684 73.2658C0.405139 73.2462 0.64406 73.4522 0.664847 73.7268C0.689291 74.0498 0.716419 74.372 0.746208 74.6934C0.771628 74.9676 0.570507 75.2106 0.29664 75.2372C0.395367 76.2107 0.51832 77.1768 0.66488 78.1351C0.936673 78.0923 1.19219 78.2772 1.2362 78.5491C1.28807 78.8696 1.34261 79.1891 1.3998 79.5077C1.44845 79.7788 1.26874 80.038 0.998132 80.0878C1.17907 81.0477 1.38381 81.9989 1.61171 82.9409C1.87884 82.875 2.14924 83.0374 2.21634 83.3045C2.2955 83.6196 2.37727 83.9336 2.46163 84.2465C2.53333 84.5124 2.3765 84.7861 2.11116 84.8588C2.37371 85.7997 2.65955 86.7305 2.96802 87.6507C3.2285 87.5621 3.51185 87.7007 3.60168 87.961C3.70732 88.2672 3.81548 88.5721 3.92616 88.8758C4.02046 89.1346 3.88773 89.4207 3.62964 89.5161C3.97208 90.4307 4.33714 91.3339 4.72413 92.2251C4.976 92.1144 5.27024 92.2281 5.38215 92.4797C5.51375 92.7756 5.64781 93.0702 5.78428 93.3634C5.90052 93.613 5.79293 93.9095 5.54401 94.0267C5.96361 94.9078 6.40498 95.776 6.86742 96.6308C7.10882 96.4988 7.41175 96.5867 7.54492 96.8278C7.70163 97.1115 7.8607 97.3937 8.02209 97.6743C8.1594 97.913 8.07775 98.2177 7.83984 98.3559C8.33337 99.1968 8.84769 100.024 9.38211 100.836C9.61125 100.683 9.92062 100.745 10.0741 100.973C10.2547 101.243 10.4375 101.51 10.6226 101.776C10.78 102.002 10.7249 102.313 10.4997 102.471C11.0636 103.266 11.6473 104.045 12.25 104.808C12.4651 104.637 12.7787 104.672 12.9512 104.886C13.1543 105.139 13.3595 105.389 13.5667 105.638C13.743 105.85 13.7149 106.164 13.5042 106.341C14.1344 107.084 14.7832 107.81 15.45 108.519C15.6495 108.33 15.9649 108.337 16.1553 108.536C16.3793 108.77 16.6053 109.002 16.8332 109.232C17.0271 109.427 17.0263 109.743 16.8317 109.937C17.5236 110.623 18.2328 111.29 18.9589 111.939C19.1412 111.733 19.456 111.713 19.663 111.895C19.9064 112.108 20.1517 112.32 20.3988 112.529C20.609 112.707 20.6355 113.021 20.4586 113.232C21.207 113.855 21.9717 114.458 22.7518 115.041C22.9155 114.819 23.2273 114.772 23.4493 114.935C23.7104 115.126 23.9733 115.316 24.2378 115.503C24.4627 115.662 24.5166 115.972 24.3588 116.198C25.1584 116.752 25.973 117.286 26.8017 117.798C26.9453 117.564 27.2518 117.489 27.4873 117.632C27.7641 117.8 28.0424 117.965 28.3223 118.128C28.5603 118.266 28.6414 118.571 28.5041 118.809C29.3492 119.291 30.208 119.751 31.0796 120.188C31.2019 119.942 31.5005 119.84 31.7477 119.962C32.038 120.104 32.3297 120.244 32.6227 120.381C32.8721 120.498 32.9799 120.794 32.8643 121.044C33.7482 121.448 34.6443 121.83 35.5519 122.188C35.6517 121.932 35.94 121.804 36.1971 121.903C36.4991 122.019 36.8024 122.132 37.107 122.243C37.3658 122.337 37.4996 122.622 37.4068 122.881C38.3223 123.205 39.2485 123.504 40.185 123.78C40.2613 123.516 40.5371 123.362 40.802 123.438C41.1136 123.526 41.4263 123.612 41.74 123.695C42.0062 123.766 42.1652 124.038 42.096 124.304C43.0357 124.544 43.9848 124.759 44.9427 124.949C44.995 124.679 45.2559 124.502 45.5264 124.553C45.8442 124.613 46.163 124.671 46.4827 124.725C46.7541 124.771 46.9369 125.028 46.8918 125.3C47.8492 125.454 48.8147 125.584 49.7877 125.688C49.8157 125.414 50.0597 125.214 50.3337 125.241C50.6548 125.272 50.9766 125.301 51.2992 125.326C51.5737 125.348 51.7787 125.588 51.7581 125.862C52.7246 125.931 53.6978 125.974 54.6773 125.991C54.6809 125.716 54.9063 125.495 55.1817 125.498C55.3442 125.499 55.5068 125.5 55.6697 125.5C55.8387 125.5 56.0076 125.499 56.1763 125.498C56.4517 125.495 56.6771 125.716 56.6809 125.991C57.711 125.972 58.7343 125.925 59.75 125.85C59.7285 125.576 59.9328 125.336 60.2072 125.313C60.5425 125.285 60.877 125.254 61.2106 125.22C61.4846 125.193 61.7293 125.392 61.7583 125.665C62.7814 125.552 63.7962 125.41 64.802 125.241C64.7551 124.97 64.9362 124.712 65.2074 124.664C65.5385 124.605 65.8686 124.544 66.1976 124.479C66.4678 124.426 66.7299 124.601 66.7842 124.871C67.7914 124.663 68.7887 124.428 69.7753 124.166C69.7034 123.9 69.8596 123.626 70.1251 123.553C70.4493 123.464 70.7722 123.372 71.094 123.276C71.3581 123.198 71.6354 123.348 71.7146 123.612C72.697 123.311 73.668 122.984 74.6267 122.631C74.5304 122.373 74.6604 122.086 74.9179 121.988C75.2323 121.869 75.5454 121.747 75.8571 121.622C76.1128 121.52 76.4029 121.644 76.5063 121.899C77.4556 121.509 78.3919 121.093 79.3144 120.652C79.1945 120.404 79.2974 120.106 79.5447 119.985C79.8468 119.837 80.1474 119.686 80.4464 119.533C80.6915 119.408 80.9918 119.504 81.1183 119.748C82.0267 119.272 82.9206 118.772 83.799 118.247C83.6569 118.012 83.7318 117.705 83.967 117.562C84.2543 117.387 84.5398 117.209 84.8236 117.029C85.0561 116.882 85.364 116.95 85.5125 117.182C86.3727 116.625 87.217 116.044 88.0443 115.442C87.8813 115.22 87.9279 114.908 88.149 114.744C88.4191 114.543 88.6873 114.34 88.9536 114.135C89.1717 113.967 89.4846 114.007 89.6535 114.224C90.459 113.591 91.247 112.937 92.0167 112.261C91.8343 112.055 91.8524 111.74 92.0578 111.557C92.3086 111.333 92.5573 111.106 92.804 110.878C93.006 110.691 93.3212 110.702 93.5091 110.903C94.2538 110.2 94.9795 109.477 95.6855 108.735C95.4853 108.546 95.475 108.231 95.663 108.03C95.8926 107.784 96.1199 107.536 96.3451 107.286C96.5294 107.081 96.8444 107.065 97.0496 107.248C97.7278 106.481 98.3858 105.696 99.0226 104.893C98.8062 104.723 98.7677 104.41 98.9369 104.193C99.1434 103.927 99.3476 103.66 99.5495 103.391C99.7148 103.171 100.027 103.126 100.248 103.29C100.854 102.466 101.439 101.625 102.002 100.767C101.771 100.618 101.705 100.309 101.854 100.078C102.036 99.795 102.215 99.5107 102.392 99.2245C102.537 98.9903 102.844 98.9175 103.079 99.0612C103.609 98.187 104.116 97.2969 104.6 96.392C104.357 96.2633 104.264 95.9621 104.391 95.7181C104.547 95.4205 104.7 95.1213 104.851 94.8205C104.974 94.5743 105.274 94.4743 105.52 94.5965C105.97 93.6787 106.396 92.7469 106.797 91.8017C106.543 91.6953 106.423 91.4036 106.529 91.1492C106.657 90.839 106.783 90.5273 106.906 90.2143C107.007 89.958 107.296 89.8316 107.552 89.9313C107.918 88.9776 108.259 88.0113 108.574 87.0333C108.312 86.9501 108.166 86.6704 108.249 86.4075C108.349 86.0872 108.446 85.7655 108.541 85.4427C108.619 85.1784 108.895 85.0267 109.159 85.1031C109.438 84.1213 109.691 83.1285 109.919 82.1256C109.65 82.066 109.48 81.8004 109.538 81.5313C109.61 81.2033 109.678 80.8742 109.744 80.544C109.797 80.2739 110.059 80.0982 110.329 80.1507C110.519 79.1489 110.683 78.1377 110.821 77.1179C110.571 77.0854 110.388 76.8731 110.385 76.6275C110.371 76.6287 110.357 76.6294 110.343 76.6295L110.274 76.6296C110.104 76.6296 109.936 76.6269 109.767 76.6216C109.491 76.6128 109.275 76.382 109.284 76.106C109.284 76.1032 109.284 76.1005 109.284 76.0978C108.297 76.0344 107.336 75.8767 106.409 75.6336C106.408 75.6362 106.407 75.6389 106.406 75.6415C106.328 75.9062 106.049 76.0568 105.785 75.978C105.46 75.8815 105.141 75.7748 104.825 75.6583C104.566 75.5625 104.434 75.275 104.53 75.0159C104.531 75.0134 104.532 75.0108 104.533 75.0082C103.627 74.6391 102.764 74.1853 101.952 73.6565C101.951 73.6587 101.949 73.6609 101.948 73.6631C101.79 73.8895 101.478 73.9447 101.251 73.7865C100.975 73.5934 100.705 73.3916 100.442 73.1817C100.226 73.0095 100.19 72.6949 100.362 72.479C100.364 72.4769 100.366 72.4748 100.368 72.4728C99.6279 71.8432 98.947 71.1445 98.3345 70.3865C98.3325 70.3881 98.3304 70.3897 98.3282 70.3913C98.1081 70.558 97.7945 70.5146 97.6278 70.2944C97.4248 70.0262 97.2299 69.7513 97.0434 69.4702C96.8907 69.2401 96.9535 68.9298 97.1836 68.7771C97.1858 68.7756 97.188 68.7742 97.1903 68.7728C96.6822 67.9515 96.2467 67.079 95.893 66.1647C95.8905 66.1656 95.888 66.1665 95.8856 66.1673C95.625 66.2588 95.3396 66.1216 95.2482 65.8611C95.1372 65.5445 95.0355 65.2235 94.9436 64.8982C94.8685 64.6325 95.0231 64.3562 95.2888 64.2811C95.2913 64.2804 95.2939 64.2797 95.2964 64.279C95.0652 63.3495 94.9154 62.387 94.8551 61.3998C94.8525 61.3999 94.8499 61.4 94.8474 61.4001C94.5713 61.4084 94.3408 61.1914 94.3325 60.9153C94.3275 60.7474 94.3249 60.5788 94.3249 60.4096C94.3249 60.2929 94.3261 60.1764 94.3285 60.0602C94.3343 59.7841 94.5627 59.565 94.8388 59.5707C94.8414 59.5708 94.844 59.5709 94.8465 59.5709C94.8763 58.9949 94.9365 58.4272 95.0256 57.8693C95.023 57.8689 95.0204 57.8684 95.0179 57.8679C94.7861 57.8234 94.6227 57.6255 94.6126 57.3996C94.5447 57.3239 94.4992 57.2269 94.4878 57.118C94.4876 57.1155 94.4873 57.113 94.4871 57.1106C94.2997 57.1245 94.1114 57.1353 93.9223 57.143C93.9224 57.1455 93.9224 57.1479 93.9224 57.1503C93.9256 57.4265 93.7043 57.6529 93.4282 57.656C93.3611 57.6568 93.294 57.6572 93.2267 57.6572C93.0533 57.6572 92.8803 57.6546 92.708 57.6495C92.432 57.6414 92.2149 57.411 92.223 57.135C92.2231 57.1325 92.2232 57.1301 92.2233 57.1276C91.2013 57.0673 90.2034 56.9153 89.2375 56.6796C89.2369 56.6821 89.2362 56.6845 89.2355 56.6869C89.1621 56.9531 88.8867 57.1093 88.6206 57.0359C88.2867 56.9437 87.9567 56.8418 87.6311 56.7304C87.3698 56.6411 87.2304 56.3568 87.3197 56.0956C87.3205 56.0932 87.3214 56.0908 87.3222 56.0885C86.3729 55.7319 85.4634 55.2917 84.6023 54.7768C84.601 54.7789 84.5997 54.781 84.5984 54.783C84.4498 55.0158 84.1406 55.084 83.9079 54.9353C83.6168 54.7494 83.3314 54.555 83.0521 54.3526C82.8286 54.1905 82.7787 53.8779 82.9408 53.6543C82.9423 53.6523 82.9437 53.6504 82.9451 53.6484C82.1469 53.0334 81.4036 52.3485 80.7239 51.6027C80.7221 51.6043 80.7203 51.6058 80.7185 51.6074C80.5091 51.7874 80.1934 51.7637 80.0134 51.5543C79.7887 51.2929 79.5713 51.0249 79.3617 50.7504C79.1941 50.531 79.2361 50.2172 79.4555 50.0496C79.4574 50.0481 79.4593 50.0467 79.4613 50.0453C78.8757 49.2311 78.3582 48.3631 77.9173 47.4499C77.9151 47.4509 77.9129 47.4519 77.9107 47.4529C77.6587 47.5658 77.3629 47.4529 77.25 47.2009C77.1095 46.8871 76.9776 46.5683 76.8547 46.2451C76.7565 45.9869 76.8862 45.6982 77.1444 45.6C77.1466 45.5992 77.1488 45.5983 77.1511 45.5975C76.8239 44.6564 76.5743 43.678 76.41 42.6702C76.4077 42.6705 76.4054 42.6709 76.403 42.6712C76.1293 42.7078 75.8777 42.5157 75.8411 42.242C75.8401 42.2348 75.8391 42.2277 75.8382 42.2205C75.6472 42.1763 75.4921 42.0213 75.4576 41.8158C75.4572 41.8135 75.4569 41.8112 75.4565 41.8089C74.9163 41.8839 74.3685 41.9347 73.8142 41.9602C73.8143 41.9625 73.8143 41.9648 73.8144 41.9671C73.8194 42.2432 73.5997 42.4711 73.3236 42.4761C73.2104 42.4782 73.0969 42.4792 72.9832 42.4792C72.8184 42.4792 72.6541 42.4771 72.4903 42.4727C72.2143 42.4654 71.9964 42.2357 72.0037 41.9597C72.0038 41.9574 72.0039 41.9551 72.0039 41.9528C71.0496 41.901 70.1148 41.7741 69.2052 41.5777C69.2047 41.58 69.2042 41.5823 69.2036 41.5846C69.1377 41.8528 68.8669 42.0168 68.5988 41.9509C68.2793 41.8724 67.9631 41.7856 67.6503 41.6906C67.3861 41.6104 67.2369 41.3311 67.3171 41.0669C67.3178 41.0647 67.3185 41.0624 67.3192 41.0602C66.4199 40.7592 65.5517 40.3885 64.7207 39.9543C64.7196 39.9563 64.7185 39.9584 64.7174 39.9604C64.5827 40.2015 64.2782 40.2878 64.0371 40.1531C63.7506 39.9931 63.4687 39.8257 63.1916 39.651C62.958 39.5038 62.888 39.195 63.0353 38.9614C63.0365 38.9595 63.0377 38.9575 63.039 38.9556C62.2552 38.4307 61.5138 37.8456 60.8213 37.2067C60.8197 37.2083 60.8181 37.21 60.8165 37.2116C60.6238 37.4094 60.3073 37.4135 60.1095 37.2208C59.8749 36.9923 59.6463 36.7576 59.4237 36.517C59.2362 36.3142 59.2486 35.9979 59.4513 35.8104C59.453 35.8089 59.4546 35.8073 59.4563 35.8058C58.8372 35.0988 58.2707 34.343 57.7633 33.5447C57.7614 33.5459 57.7595 33.5471 57.7576 33.5482C57.5206 33.69 57.2136 33.6128 57.0718 33.3759C56.9039 33.0953 56.743 32.8099 56.5893 32.52C56.46 32.276 56.5529 31.9734 56.7969 31.844C56.7989 31.843 56.8009 31.8419 56.8029 31.8409C56.3873 31.0028 56.0326 30.128 55.745 29.2225C55.7429 29.2231 55.7407 29.2238 55.7386 29.2244C55.4732 29.3009 55.1961 29.1477 55.1197 28.8824C55.0293 28.5688 54.9467 28.2518 54.8721 27.9317C54.8094 27.6628 54.9766 27.394 55.2455 27.3313C55.2477 27.3308 55.2499 27.3303 55.2521 27.3298C55.0654 26.4188 54.9449 25.4831 54.8957 24.5282C54.8935 24.5283 54.8914 24.5284 54.8892 24.5284C54.6131 24.5354 54.3837 24.3172 54.3768 24.0411C54.3727 23.8775 54.3706 23.7135 54.3706 23.5489C54.3706 23.4534 54.3713 23.3581 54.3727 23.2629C54.3767 22.9868 54.6038 22.7663 54.8799 22.7703C54.8821 22.7703 54.8843 22.7704 54.8865 22.7704C54.9033 22.3582 54.9334 21.9495 54.9764 21.5447C54.9742 21.5445 54.972 21.5442 54.9698 21.5439C54.8073 21.5222 54.6735 21.4248 54.5992 21.292C54.5529 21.3091 54.5031 21.3196 54.4511 21.3222L54.376 21.3258L54.3758 21.3259L54.3188 21.3283C54.237 21.3316 54.1589 21.315 54.0893 21.2829C54.0212 21.318 53.944 21.3381 53.8622 21.3384L53.8051 21.3385C53.6499 21.3385 53.4952 21.3357 53.3413 21.3301C53.0653 21.3201 52.8497 21.0882 52.8598 20.8123C52.8599 20.8088 52.8601 20.8054 52.8603 20.802Z" stroke="#B3C2C6" stroke-linecap="round" stroke-linejoin="round" stroke-dasharray="1 4"/>
  <path d="M59.8685 6.89284C59.619 6.91889 59.3673 6.93801 59.1137 6.94938C58.9234 6.95797 58.7321 6.96213 58.5398 6.96213C53.6191 6.96213 49.3458 4.14064 47.1958 0C21.4256 6.12352 2.2301 29.6593 2.2301 57.7594C2.2301 90.5159 28.3145 117.07 60.4912 117.07C90.3147 117.07 114.904 94.2581 118.341 64.8388C118.108 64.849 117.873 64.854 117.637 64.854C108.708 64.854 101.469 57.4848 101.469 48.3946C101.469 47.1852 101.597 46.0065 101.84 44.8714C101.17 44.9492 100.488 44.9892 99.7965 44.9892C90.5911 44.9892 83.0141 37.8921 82.0576 28.7791C80.9398 28.9881 79.7878 29.0973 78.6106 29.0973C68.1416 29.0973 59.6549 20.4577 59.6549 9.79996C59.6549 8.81171 59.7278 7.84091 59.8685 6.89284Z" fill="#ACBFC6"/>
  <path d="M60.4912 117.07C90.3147 117.07 114.904 94.2578 118.342 64.8386C118.108 64.8488 117.873 64.8539 117.637 64.8539C116.292 64.8539 114.984 64.6866 113.735 64.3712C104.814 88.9756 59.9337 125.868 9.62762 86.7053C19.5983 104.824 38.6399 117.07 60.4912 117.07Z" fill="#8AA5B0"/>
  <ellipse cx="42.6505" cy="24.2729" rx="5.29646" ry="5.39189" fill="#6B8F9C"/>
  <ellipse cx="49.8982" cy="69.1108" rx="11.9867" ry="12.2027" fill="#6B8F9C"/>
  <ellipse cx="91.1549" cy="77.6243" rx="5.29646" ry="5.39189" fill="#6B8F9C"/>
  <path d="M2.2301 56.6099C3.31745 57.1639 4.54462 57.4756 5.84328 57.4756C10.308 57.4756 13.9273 53.791 13.9273 49.2459C13.9273 44.7008 10.308 41.0162 5.84328 41.0162C5.40053 41.0162 4.96613 41.0525 4.54271 41.1222C3.1309 46.0497 2.33032 51.2425 2.2301 56.6099Z" fill="#6B8F9C"/>
  <path d="M63.4652 116.993C63.5048 116.646 63.525 116.293 63.525 115.935C63.525 110.92 59.5313 106.854 54.6047 106.854C49.9362 106.854 46.1054 110.505 45.7168 115.155C50.4252 116.405 55.3656 117.07 60.4587 117.07C61.4671 117.07 62.4694 117.044 63.4652 116.993Z" fill="#6B8F9C"/>
</svg>
