<svg width="33" height="18" xmlns="http://www.w3.org/2000/svg"><g fill-rule="nonzero" fill="none"><path fill="#ED1C24" d="M24.625.256H7v17.475h17.625l8.033-8.739z"/><path d="M24.475 0H.257a.256.256 0 0 0-.256.256v17.475A.257.257 0 0 0 .257 18H24.45c.07 0 .139-.03.187-.081l8.034-8.75a.256.256 0 0 0 0-.349L24.637.073A.27.27 0 0 0 24.475 0zm-.025 17.744H.257V.256H24.46l8.024 8.74-8.033 8.748z" fill="#231F20"/><path d="m2.03 5.768.537-1.488H4.53l.504 1.488h.737L3.97.8h-.76L1.34 5.768h.69zm2.285-2.035H2.759l.802-2.195.754 2.195z" fill="#000"/><path d="m3.772 6.89.03.026.988.987a.347.347 0 0 1-.46.518l-.03-.027-.396-.396v2.906a.347.347 0 0 1-.692.038l-.002-.038V7.996l-.398.398a.347.347 0 0 1-.46.026l-.03-.027a.347.347 0 0 1-.027-.46l.027-.03.99-.987a.347.347 0 0 1 .46-.027z" fill="#1C1A00"/><path d="M3.503 17.07c.416 0 .758-.077 1.028-.23.16-.088.345-.246.552-.474l.148.583h.396v-2.426H3.636v.51h1.42c-.007.53-.144.914-.412 1.152-.269.238-.608.357-1.017.357-.535 0-.921-.17-1.158-.508-.236-.339-.355-.777-.355-1.316 0-.624.144-1.093.43-1.408.288-.315.641-.472 1.061-.472.354 0 .647.076.88.227.232.151.385.392.46.724h.607c-.1-.593-.376-1.008-.827-1.244-.31-.165-.679-.247-1.105-.247-.621 0-1.127.214-1.518.642-.412.448-.617 1.052-.617 1.811 0 .762.21 1.36.632 1.797.387.347.85.521 1.386.521z" fill="#000"/><path d="M21.472 4.353a.769.769 0 0 0-.158-.349 1.799 1.799 0 0 0-.39-.29 3.768 3.768 0 0 0-.703-.316 6.739 6.739 0 0 0-.988-.25 7.088 7.088 0 0 0-1.247-.104 5.97 5.97 0 0 0-2.277.416 4.79 4.79 0 0 0-1.745 1.205c-.499.552-.88 1.201-1.117 1.907a7.62 7.62 0 0 0-.395 2.534c-.013.83.112 1.658.37 2.447a5.04 5.04 0 0 0 1.068 1.828 4.57 4.57 0 0 0 1.703 1.147c.726.28 1.498.422 2.277.416.288 0 .577-.016.864-.046a11.59 11.59 0 0 0 1.691-.361c.278-.08.482-.163.66-.242a.636.636 0 0 0 .354-.315c.06-.148.09-.306.087-.466v-4.57a1.093 1.093 0 0 0-.042-.316.681.681 0 0 0-.12-.236.523.523 0 0 0-.179-.146.548.548 0 0 0-.232-.05h-3.615a.2.2 0 0 0-.133.05.378.378 0 0 0-.1.15 1.118 1.118 0 0 0-.062.27 3.615 3.615 0 0 0 0 .415 1.97 1.97 0 0 0 .083.677c.054.133.133.2.229.2h2.01v2.663c-.205.12-.426.209-.656.266a2.908 2.908 0 0 1-.715.087 3.444 3.444 0 0 1-1.35-.257 2.792 2.792 0 0 1-1.047-.765 3.586 3.586 0 0 1-.677-1.246 5.63 5.63 0 0 1-.241-1.737 5.339 5.339 0 0 1 .237-1.637c.142-.463.374-.893.681-1.267.29-.354.654-.638 1.068-.831a3.274 3.274 0 0 1 1.396-.29c.428-.007.854.048 1.267.161.322.09.636.206.94.345.218.1.429.215.63.345.1.08.219.135.345.158a.191.191 0 0 0 .13-.046.337.337 0 0 0 .09-.154c.03-.097.05-.197.059-.299.015-.148.022-.296.02-.444a3.412 3.412 0 0 0-.07-.657z" fill="#FFF"/></g></svg>
