<svg width="33" height="18" xmlns="http://www.w3.org/2000/svg"><g fill-rule="nonzero" fill="none"><path fill="#FDB913" d="M24.755.256H7.13v17.475h17.625l8.033-8.739z"/><path d="M24.605 0H.388A.256.256 0 0 0 .13.256v17.475A.257.257 0 0 0 .387 18H24.58c.071 0 .14-.03.188-.081l8.033-8.75a.256.256 0 0 0 0-.349L24.768.073A.27.27 0 0 0 24.605 0zm-.025 17.744H.388V.256H24.59l8.023 8.74-8.033 8.748z" fill="#231F20"/><path d="M2.161 5.768 2.7 4.28h1.964l.504 1.488h.737L4.102.8h-.76l-1.87 4.967h.69zm2.286-2.035H2.892l.801-2.195.754 2.195z" fill="#000"/><path d="m3.904 6.89.03.026.988.987a.347.347 0 0 1-.46.518l-.03-.027-.396-.396v2.906a.347.347 0 0 1-.691.038l-.002-.038V7.996l-.4.398a.347.347 0 0 1-.46.026l-.03-.027a.347.347 0 0 1-.026-.46l.027-.03.99-.987a.347.347 0 0 1 .46-.027z" fill="#1C1A00"/><path d="M3.635 17.07c.416 0 .759-.077 1.028-.23.16-.088.345-.246.553-.474l.148.583h.395v-2.426h-1.99v.51h1.419c-.006.53-.144.914-.412 1.152-.269.238-.608.357-1.017.357-.535 0-.92-.17-1.157-.508-.237-.339-.355-.777-.355-1.316 0-.624.143-1.093.43-1.408.287-.315.64-.472 1.06-.472.354 0 .647.076.88.227.232.151.386.392.46.724h.608c-.101-.593-.377-1.008-.827-1.244-.311-.165-.68-.247-1.105-.247-.622 0-1.128.214-1.519.642-.411.448-.617 1.052-.617 1.811 0 .762.21 1.36.633 1.797.386.347.848.521 1.385.521z" fill="#000"/><path d="M20.265 13.532a1.252 1.252 0 0 0-.064-.288.374.374 0 0 0-.108-.16.224.224 0 0 0-.142-.05h-3.953V9.677h3.32a.232.232 0 0 0 .143-.048.327.327 0 0 0 .107-.15 1.14 1.14 0 0 0 .065-.28 4.629 4.629 0 0 0 0-.86 1.161 1.161 0 0 0-.065-.284.366.366 0 0 0-.107-.155.22.22 0 0 0-.142-.052h-3.321V4.93h3.927c.051 0 .1-.018.138-.052a.404.404 0 0 0 .103-.16c.033-.092.055-.19.065-.287.015-.143.022-.287.021-.43a4.03 4.03 0 0 0-.021-.457c-.01-.1-.032-.197-.065-.292a.357.357 0 0 0-.103-.16.215.215 0 0 0-.138-.047h-5.489a.662.662 0 0 0-.473.181.77.77 0 0 0-.193.585v10.367a.77.77 0 0 0 .193.585c.128.12.298.186.473.181h5.52a.219.219 0 0 0 .141-.052.374.374 0 0 0 .108-.159c.033-.093.055-.19.065-.288a4.766 4.766 0 0 0 0-.89l-.005-.022z" fill="#FFF"/></g></svg>
